<svg width="26" height="24" viewBox="0 0 26 24" fill="none" xmlns="http://www.w3.org/2000/svg">
<path fill-rule="evenodd" clip-rule="evenodd" d="M0 2.1C0 0.940202 0.940202 0 2.1 0H23.9C25.0598 0 26 0.940202 26 2.1C26 3.2598 25.0598 4.2 23.9 4.2H2.1C0.940201 4.2 0 3.2598 0 2.1ZM7.80005 12C7.80005 10.6745 8.87457 9.59998 10.2 9.59998H23.6C24.9255 9.59998 26 10.6745 26 12C26 13.3255 24.9255 14.4 23.6 14.4H10.2C8.87457 14.4 7.80005 13.3255 7.80005 12ZM15.1 19.8C13.9402 19.8 13 20.7403 13 21.9C13 23.0598 13.9402 24 15.1 24H23.9C25.0598 24 26 23.0598 26 21.9C26 20.7403 25.0598 19.8 23.9 19.8H15.1Z" fill="white"/>
</svg>
